<?xml version="1.0" encoding="UTF-8"?>
<svg id="b" data-name="Camada 2" xmlns="http://www.w3.org/2000/svg" viewBox="0 0 982.51 858.21">
  <defs>
    <style>
      .d {
        fill: #ec1839;
      }
    </style>
  </defs>
  <g id="c" data-name="Camada 1">
    <g>
      <path class="d" d="M476,714.43c13.78-20.13-15.82,11.1-35.91,26.07-1.32,.98-2.88-.86-1.69-2,49.14-47.14,197.36-232.91,78.08-177.07-7.26-3.19,38.28-20.64,24.38-22.21-.44-.05-.87,.12-1.16,.45-8.94,10.09-29.74,7.71-34.09,21.96-.03,.09-.05,.19-.05,.29-.51,6.67-5.31,9.14-9.49,11.67-.11,.07-.23,.11-.35,.14-112.16,28.03-38.73,199.52-136.74,246.59-1.16,.56-2.35-.72-1.7-1.84,26.36-45.76,64.79-131.04,53.7-173.91-.23-.9-1.28-1.29-2.03-.76-99.72,70.43-465.41,384.7-401.51,91.49,.01-.05,.02-.1,.04-.14,28.8-85.72,96.63-282.97,175.42-320.86,1.24-.59,2.44,.87,1.62,1.97C-25.84,699.67-104.56,1044.73,324.42,694.8c.36-.29,.53-.75,.47-1.2-.51-4.1,.19-6.01,3.9-5.15,.23,.05,.49,.06,.72-.02,5.45-1.83,5.26-9.56,11.88-9.23,.93,.05,1.64-.81,1.35-1.69-10.63-32.3-14.98-92.47,10.67-123.65,.06-.07,.11-.15,.15-.23,24.69-48.79-24.14,78.33,12.86,21.7,.39-.6,.22-1.43-.38-1.82-5.99-3.97-8.57-1.94-4.57-10.13,.37-.76,1.37-1.02,2.01-.46,5.72,4.93,10.52-8.39,14.32-9.78,1.01-.37,1.98,.71,1.6,1.72-9.74,25.74-37.69,75.22-16.26,90.02,.88,.6,.75,1.93-.25,2.31-11.45,4.44-11.26,21.98,1.28,16.37,.35-.16,.75-.16,1.1,0,18.43,8.2,25.46-35.81,39.38-25.09,.56,.43,1.37,.37,1.81-.18,9.5-11.6,9.05-24.26,1.97-15.33-.91,1.15-2.74,.15-2.27-1.24,14.58-43.3,29.83-80.18-9.22-108.89-.11-.08-.2-.18-.28-.28-5.97-8.29-3.97,4.96-8.2,8.86-.2,.18-.35,.41-.41,.67-3,11.48-35.65,22.47-19.97,6.81,.19-.19,.32-.45,.37-.72,2.8-17.26,25.79-27.21,43.97-21.81,.44,.13,.93,.04,1.26-.28,16.9-16.11-.83-72.63-4.79-94.35-2.99-16.41-12.83-41.38-16.54-49.18-.34-.72,.02-1.6,.79-1.82,33.1-9.72,42.44,156.36,45.15,181.16,2.59,16.52,23.83-24.42,34.09-27.27,.25-.07,.48-.2,.66-.39,21.52-23.99,45.54-34.63,70.5-48.76,.59-.34,1.36-.16,1.74,.4,12,17.59-42.15,39.72-52.61,49.04-10.59,9.29-81.34,75.88-36.52,63.87,.04-.01,.08-.02,.11-.04,11.29-4.27,26.37-3.29,31.95-15.68,.11-.25,.3-.47,.54-.6,165.76-94.97,56.42,93.81-10.75,153.7-1.16,1.04-2.84-.44-1.96-1.72Zm-101.33,93.17c.66-.97,1.26-2.22,1.84-3.5,.71-1.54-1.55-2.69-2.34-1.18-.58,1.1-1.14,2.25-1.71,3.28-.8,1.44,1.29,2.77,2.21,1.4ZM158.21,439.48c1.05-1.45,1.95-3.02,2.37-4.28,.4-1.19-1-2.21-2.02-1.47-1.51,1.1-2.12,2.82-2.66,4.57-.44,1.42,1.44,2.37,2.32,1.17Zm-28.48,35.59c-1.91,1.61-2.13,2.66-1.03,4.13,.62,.82,1.92,.6,2.27-.37,.26-.73,.53-1.48,.82-2.3,.45-1.25-1.05-2.32-2.07-1.46Z"/>
      <path class="d" d="M823.49,558.46c10.61-18.16,21.5-35.46,37.04-47.73,1.18-.94,2.95-.16,3.06,1.35,1.12,16.33,15.31-52.33,31.96-19.36,.06,.11,.1,.24,.14,.36,7.17,25.14,1.83-.19-9.67,4.76-38.85,16.62-38.1,142.59,11.75,86.92,.24-.27,.4-.61,.46-.96,7.46-44.53,14.94-60.98,1.69-93.78-.7-1.73,1.29-3.34,2.83-2.27,11.31,7.84,.12,28.22,9.94,35.31,.15,.11,.28,.23,.4,.37,17.28,22.06-19.93,65.7-14.04,80.81,.11,.27,.29,.51,.5,.71,12.58,11.35,11.83-10.2,25.25,2.89,.14,.14,.31,.26,.48,.35,3.46,1.72,6.19,.34,3.94-2.74-.63-.86-.42-2.08,.46-2.68,23.03-15.82,28.77,8.04,30.89-6.14,.15-1.04,1.14-1.77,2.17-1.59,32.6,5.87,16.22,210.47,11.09,133.49,0-.12-.03-.24-.06-.35-4.57-16.72-3.56-50.08-6.68-79.66-.01-.14-.01-.27,0-.41,11.94-96.66-113.88,23.47-146.62-35.56-.68-1.22-2.4-1.36-3.2-.22-6.88,9.79-9.8,21.49-18.82,29.13-.64,.54-1.58,.58-2.26,.09-2.93-2.11-5.58-5.57-9.46-4.16-1.52,.55-2.98-1.02-2.36-2.51,4.34-10.32,19.21-9.52,18.36-15.31-.02-.16-.04-.32-.02-.48,1.75-20.94,18.51-41.9,20.56-59.92,.03-.26,.11-.5,.24-.72Zm13.52,18.48c-13.62,19.61,16.33,55.56,21.01,30.36,.14-.76-.2-1.53-.84-1.96-10.27-6.91-11.48-18.1-16.96-28.22-.66-1.23-2.42-1.33-3.21-.18Zm75.71-24.32c.73-.78,1.32-1.66,1.62-2.54s-.1-1.95-.99-2.29c-1.35-.51-2.59,.81-3.64,2.55-1.21,1.99,1.43,3.98,3.01,2.27Z"/>
      <path class="d" d="M659.48,507.34c44.23-33.27,30.4-73.84,62.31-95.11,3.95,11.67-15.43,34.11-3.71,38.18,6.57,1,9.28,4.71,5.32,10.47-8.54,13.51-17.14,2.9-15.93,27.29-32.09,74.64-51.95,283.23,68.29,145.24,3.28,29.87-48.14,70.76-80.87,58.75-86.3-23.86,47.21-270.89-49.95-158.21-11.93,4.31-52.76,51.01-58.08,38.1,9.77,.61,2.47-10.26,8.2-16.37,1.93,7.25,5.15,10.19,8.62,.82,10.66-21.37,36.14-34.01,55.94-49.31-15.48,16.14,7.4,3.12-.15,.16Z"/>
      <path class="d" d="M588.28,148.38c-18.03-20.47-16.46,16.4-24.2,22.17,12.88,11.22-9.95,33.52-11.11,48.46-6.43,11.43-24.32,64.39,.25,57,14.05-3.11,16.62-24.59,30.36-14.51,10.4-3-4.16-23.31,17.94-23.65-21,33.51,17.82,3.2-9.52,60.25-18.84,38.39-103.24,192.69-72.94,101.25,7.93-14.01,101.85-170.3,47.71-112.03-111.11,61.44,27.69-226.91,21.5-138.94Z"/>
      <path class="d" d="M727.85,296.1c3.24-1.78,5.98-4.36,7.95-7.49,8.32-13.24,10.51-17.63,16.3-29.2,4.73-9.46,7.15-19.47,15.37-26.73-9.72,26.15-40.53,118.22-94.75,93.9-11.05-1.68-9.3-27.49-18.04-14.33-2.76,11.19,5.65,15.82-12.49,23.04-20.7-1.29,8.94-38.93,14.49-48.04,9.15-17.16,1.74-36.06,10-54,14.99-28.24,10.98-28.99,27-37,4-2,4.21-9.18,12.62,.22,20.09,22.46-89.84,160.99,21.56,99.64Zm-58.17-13.86c11.44-15.24,36.48-76.82,30-70-7.51,7.9-43.91,46.61-30,70Z"/>
      <path class="d" d="M436.18,236.94c7.17,3.93,6.55-18.31,9.74-15.58,.65,.55,.85,1.46,.67,2.3-1.44,6.76-2.42,14.35-7.58,18.76-.61,.52-.92,1.33-.84,2.13,1.76,17.87,6.21,.88,11.77-7.74,3.96-6.86,.19-29.45-3.94-26-1.52,1.27-3.86,.45-4.13-1.51-1.84-13.62,14.23-14.97,13.54,7.69,0,.31,.04,.64,.15,.93,14.41,38.98-30.8,43.21,.7,117.6,.71,1.69,2.95,2.08,4.17,.72,8.68-9.78,.71-33.59,19.09-31.81,.85,.08,1.68-.28,2.2-.95,12.61-16.2,3.51,2.4,2.53,15.37-.02,.2-.06,.41-.12,.6-35.5,104.67-64.76-34.69-51.56-80.99,.44-1.54,2.2-2.26,3.61-1.49Z"/>
      <path class="d" d="M362.15,272.47c10.25,.72,3.82-9.83,9.6-13.1,5.95,28.97,29.14,62.01,21.03,90.12,14.51-8.02,4.61,3.9,.85,10.09,4.52,11.4,7.47,2.7,5.35-5.61,6.15,4.98,21.02,34.1,6.71,37.24-6.29-17.37-19.87-31.85-25.14-52.8"/>
      <path class="d" d="M742.76,126.56s-24.36,5.75-19.18-1.32c17.16-4.6,36.8-46.04,39.1-49.99,7-12,19.22-29.19,28-44,6.32-10.66,15.49-39.44,31-29-28.69,31.75-78.92,124.32-78.92,124.32Z"/>
      <path class="d" d="M475.67,184.8c17.45-31.18,27.88,116.09,6.43,119.22,7.69-29.34-9.6-43.2,3.53-48.8,4.58-18.75,9.3-46.68-2.85-62.57-2.62-4.72,3.54-11.78-7.11-7.85Z"/>
      <path class="d" d="M444.7,170.23c-8.84,9.28-15.79,19.31-23.92,29.05,2.83-11.92-2.5-30.52,11.49-37.56,22.19-18.37,38.93,.3,12.43,8.51Zm-19.71,14.24q4.98-5.08,1.58-8c-.49,2.5-.94,4.75-1.58,8Z"/>
      <path class="d" d="M341.28,818.25c-7.66,5.61-51.11-23.81-27.76-27.45,21.78,11.43,24.88,4.62,27.76,27.45Z"/>
      <path class="d" d="M243.71,426.28c4.7-40.41,12.51,47.43-1.13,27.36-6.36-22.62-1.54-31.56-20.18-45.3,13.7-9.82,15.42,13.33,21.31,17.94Z"/>
      <path class="d" d="M484.36,221.61c3.25-32.09-36.89-70.26-20.09-66.58,3.7,.5,3.83,7.17,8.53,4.46,5.1,3.32-9.02,7.61,1.42,13.93,12.86,13.3,12,34.14,10.14,48.19Z"/>
      <path class="d" d="M417.68,196.28v31.53c-2.47,2.39-9.2,3.08-2.69,7.59-13.52,68.08-5.33-22.48,2.69-39.11Z"/>
      <path class="d" d="M749.66,434.39c2.81,3.37,5.91-2.81,9.99-5.19,.94-.55,.94-1.91,.03-2.5-2.63-1.72-4.72-2.48,.85-3.56,.29-.06,.6-.02,.87,.1,10.28,4.27,6.87-12.71,11.58-3.13,.3,.62,.14,1.36-.4,1.79-6.42,5.19-28.26,27.19-39.06,33.56-1.64,.96-3.12-1.43-1.56-2.51,6.71-4.65,12.52-11.78,15.25-18.13,.43-1,1.76-1.27,2.46-.44Z"/>
      <path class="d" d="M346.53,235.03c-6.77-11.74,6.97-19.78,15.03-14.18,2.53,4.61,5.2,26.61-2.69,20.25,4.07-16.11-1.37-18.12-12.34-6.07Z"/>
      <path class="d" d="M715.65,395.36c-5.79,11.7-2.19,10.08,4.76,1.81,.7-.83,2.06-.23,1.91,.85-2.22,16.16-7.27,3.66-13.75,23.24-4.4,13.35-4.95-25.4,5.89-27.46,.88-.17,1.58,.75,1.18,1.56Z"/>
      <path class="d" d="M687.92,217.92c-8.67-5.84-8.95-9.31-1.96-16.12,14.74-16.14,4.38,7.07,1.96,16.12Z"/>
      <path class="d" d="M234.09,486.08c4.3-16.48,9.33-7.4,12.81-21.8,3.59,8.49,.82,13.57-12.81,21.8Z"/>
      <path class="d" d="M673.05,226.96c-1.24-4.42,1.55-11.68,5.39-14.06,2.38,8.69,.82,12.75-5.39,14.06Z"/>
      <path class="d" d="M362.56,246.11c1.97,3.53,6.71,5.59,3.16,10.68-6.18-3.89-13.05-6.27-3.16-10.68Z"/>
      <path class="d" d="M914.09,508.44c.51,3.88,4.63,8.44,1.66,11.85-3.11-1.16-4.46-11.14-1.66-11.85Z"/>
      <path class="d" d="M975.59,754.8c1.88,1.46,3.75,2.93,6.92,5.4-6.03,2.85-8.93-1.92-6.92-5.4Z"/>
      <path class="d" d="M198.52,410.97c-2.53,1.72-4.72,4.89-9.75,.69,3.72-.13,9.09-4.07,9.75-.69Z"/>
      <path class="d" d="M153.07,443.59c3.61-2.76,1.92-9.1,7.23-10.71,2.59,1.3-5.23,11.98-7.23,10.71Z"/>
      <path class="d" d="M133.21,472.6c-1.29,3.6-2.08,5.81-2.96,8.25-3.46-3.27-3.15-4.25,2.96-8.25Z"/>
      <path class="d" d="M907.06,555.48c1.4-2.39,4.2-10.74,7.49-6.74,.09,3.28-5.02,7.19-7.49,6.74Z"/>
      <path class="d" d="M659.48,507.34c8.18-1.97-4.69,10.76-6.47,8.76,1.99-2.74,5.01-6.63,6.47-8.76Z"/>
      <path class="d" d="M669.68,282.24c-11.96-19.84,9.16-37.25,22-51-2.87,3.07-18.65,42.31-22,51Z"/>
    </g>
  </g>
</svg>